<svg xmlns="http://www.w3.org/2000/svg" viewBox="0 0 100 100">
  <polygon fill="#444" points="100,0 100,70 10,0"/>
  <path fill="#fff" d="M77.791,8.212c-8.208,0-14.856,6.652-14.856,14.856c0,6.565,4.257,12.132,10.158,14.095
  c0.743,0.14,1.015-0.32,1.015-0.714c0-0.353-0.012-1.288-0.018-2.525c-4.133,0.896-5.005-1.993-5.005-1.993
  c-0.676-1.715-1.652-2.173-1.652-2.173c-1.346-0.921,0.104-0.903,0.104-0.903c1.492,0.104,2.275,1.53,2.275,1.53
  c1.325,2.271,3.479,1.616,4.327,1.236c0.134-0.961,0.517-1.616,0.94-1.987c-3.299-0.371-6.767-1.649-6.767-7.342
  c0-1.622,0.575-2.946,1.529-3.986c-0.167-0.375-0.669-1.885,0.13-3.932c0,0,1.244-0.398,4.086,1.523
  c1.188-0.331,2.45-0.494,3.713-0.501c1.264,0.007,2.526,0.171,3.715,0.501c2.823-1.921,4.066-1.523,4.066-1.523
  c0.799,2.047,0.298,3.557,0.149,3.932c0.947,1.04,1.522,2.365,1.522,3.986c0,5.708-3.473,6.964-6.778,7.329
  c0.52,0.446,1.003,1.357,1.003,2.749c0,1.989-0.019,3.585-0.019,4.068c0,0.39,0.26,0.854,1.021,0.706
  c5.943-1.949,10.196-7.52,10.196-14.075C92.647,14.864,85.996,8.212,77.791,8.212"/>
</svg>
